<svg xmlns="http://www.w3.org/2000/svg" viewBox="0 0 85.42 76.79"><defs><style>.cls-1{fill:#f89939;}.cls-2{fill:#ffcd49;}</style></defs><g id="Camada_2" data-name="Camada 2"><g id="Camada_1-2" data-name="Camada 1"><path d="M84.14,26.27c.24-1,.63-3.48-.56-5.13a3.8,3.8,0,0,0-3.2-1.48,8.58,8.58,0,0,0-1.86-5.25c-1.39-1.55-3.41-2.16-6-1.81A5.67,5.67,0,0,0,68,10.11a6.09,6.09,0,0,0-2.67.67c.1-1.85-.09-4.56-1.7-6.42l0,0a15.74,15.74,0,0,0-4.08-2.87l1.41,3.07a11.68,11.68,0,0,1,1.33,1.11,6.85,6.85,0,0,1,1.23,4.46l1.45,3.14A5.34,5.34,0,0,1,68,12a4.06,4.06,0,0,1,3.24,2.07.93.93,0,0,0,1,.48,9,9,0,0,1,1.64-.17,4.16,4.16,0,0,1,3.29,1.29c1.61,1.78,1.37,4.88,1.37,4.91a1,1,0,0,0,.28.76.93.93,0,0,0,.76.26c1.24-.17,2.08.05,2.53.66.77,1.06.38,3.18.16,3.91a1,1,0,0,0,.14.83,4.64,4.64,0,0,1,1.07,3.83,5.06,5.06,0,0,1-2.65,2.79,1,1,0,0,0-.55.66c-.94,4.19-2.89,9.18-6.81,9.18a8.7,8.7,0,0,1-5-2.12.9.9,0,0,0-1-.18,1,1,0,0,0-.59.79c-.36,4.12-2.51,4.13-3.22,4.13h0A8.62,8.62,0,0,1,60,45a.89.89,0,0,0-.71-.1.93.93,0,0,0-.56.45A3,3,0,0,1,55.88,47a9.4,9.4,0,0,1-4.27-1.41.88.88,0,0,0-.8-.1,1,1,0,0,0-.57.57,7.25,7.25,0,0,1-7.36,5.29A11.06,11.06,0,0,1,39.83,51a.91.91,0,0,0-1,.31.94.94,0,0,0-.07,1.07,6.87,6.87,0,0,1,.89,5.23c-1,3.89-5.21,6.53-5.25,6.55a.94.94,0,0,0-.45.69c-1.3,9.72-7.67,10-8.41,10h-.16a9,9,0,0,1-1.13.08c-8.19,0-9.14-14.65-9.15-14.8a.93.93,0,0,0-.71-.86c-4.27-1-3.25-8.17-3.24-8.24a.94.94,0,0,0-.33-.88.88.88,0,0,0-.58-.21A1,1,0,0,0,9.9,50a2.81,2.81,0,0,1-1,.21c-2,0-2.67-3.25-2.68-3.28a.94.94,0,0,0-.42-.62A6.67,6.67,0,0,1,2.5,42.22a4.94,4.94,0,0,1,.61-3.41A1,1,0,0,0,3,37.63a3.75,3.75,0,0,1-1.16-3c.2-2.18,2.48-3.91,2.5-3.93a1,1,0,0,0,.21-1.32,5,5,0,0,1-1-4.07c.73-3.27,4.82-5.59,4.86-5.61a1,1,0,0,0,.48-1c-.37-2.86.08-5.05,1.34-6.52,1.7-2,4.55-2.28,6.09-2.28A9.75,9.75,0,0,1,17.5,10a.92.92,0,0,0,.88-.41c1.2-1.8,2.42-2.72,3.62-2.72,2.06,0,3.68,2.65,3.69,2.68a.94.94,0,0,0,.74.45.92.92,0,0,0,.78-.35A5.64,5.64,0,0,1,31.6,7.13a4.69,4.69,0,0,1,2.48.73.91.91,0,0,0,1.27-.2,5.57,5.57,0,0,1,4.46-2.55,6.61,6.61,0,0,1,3.6,1.22.92.92,0,0,0,1.22-.08,14.7,14.7,0,0,1,5.65-3.78L54.83.07A12.12,12.12,0,0,0,53.61,0c-3.44,0-6.72,1.47-9.76,4.38a8.16,8.16,0,0,0-4-1.16,7.17,7.17,0,0,0-5.42,2.66,6.71,6.71,0,0,0-2.79-.64A7,7,0,0,0,26.55,7.6C25.67,6.54,24.06,5,22,5c-1.73,0-3.35,1-4.83,3.09l-.81,0c-1.86,0-5.3.38-7.49,2.92C7.34,12.79,6.72,15.28,7,18.41c-1.3.84-4.49,3.19-5.23,6.52a6.59,6.59,0,0,0,.81,4.86A8,8,0,0,0,0,34.48a5.46,5.46,0,0,0,1.21,3.91,6.75,6.75,0,0,0-.55,4.19,8.2,8.2,0,0,0,3.81,5.09c.31,1.17,1.42,4.4,4.4,4.4h.3c-.12,2.42.15,7.37,4.11,8.82.29,3.13,2,15.91,10.94,15.91h0a10,10,0,0,0,1.32-.09c1,0,8.51-.39,10.15-11.2C36.9,64.69,40.46,62,41.43,58a8.27,8.27,0,0,0-.25-4.87,14.28,14.28,0,0,0,1.7.11,9.06,9.06,0,0,0,8.69-5.52,10.11,10.11,0,0,0,4.31,1.17,4.81,4.81,0,0,0,4-1.91,9.67,9.67,0,0,0,3.85,1h0c1.5,0,4-.59,4.83-4.26a9.26,9.26,0,0,0,4.91,1.64c2.79,0,6.5-1.79,8.52-10.21a6.6,6.6,0,0,0,3.27-3.79A6.16,6.16,0,0,0,84.14,26.27Z"/><rect class="cls-1" x="64.72" y="26.06" width="8.51" height="7.3" transform="matrix(0.88, -0.47, 0.47, 0.88, -5.89, 35.62)"/><path d="M26.55,42.65A19.39,19.39,0,0,1,26,45.77a16.69,16.69,0,0,1-1,2.84,14.08,14.08,0,0,1-.9,1.78,3,3,0,0,1-.85,1,.6.6,0,0,1-.39.1.42.42,0,0,1-.32-.22.86.86,0,0,1-.1-.65,1.9,1.9,0,0,1,.39-.7,3.17,3.17,0,0,1,.42-.47,3.3,3.3,0,0,0,.61-.71,10.55,10.55,0,0,0,.87-1.88,13.48,13.48,0,0,0,.6-2,12.68,12.68,0,0,0,.28-2.25,3,3,0,0,0-.43-1.61.69.69,0,0,0-.72-.34,2.44,2.44,0,0,0-1,.38,7.66,7.66,0,0,0-2.2,2l-.49.74c-.32.47-.59.85-.8,1.14s-.49.61-.72.89l-.48.56.48.68q.17.27.57.87c.27.39.51.77.74,1.13a11.85,11.85,0,0,1,1.09,2.18,1.09,1.09,0,0,1,.06.47c0,.12-.11.22-.28.33a.55.55,0,0,1-.38.08.37.37,0,0,1-.32-.18,5.83,5.83,0,0,1-.23-.73,3.89,3.89,0,0,0-.46-1.12q-.88-1.44-2.4-3.6l-.58-.81c-.57-.77-1-1.39-1.29-1.86a15.76,15.76,0,0,1-.77-1.4c-.29-.58-.48-1-.56-1.15a14.92,14.92,0,0,0-1.38,1.77,6.1,6.1,0,0,0-.53,1,1.87,1.87,0,0,1-.44.68.4.4,0,0,1-.34,0,.54.54,0,0,1-.31-.25c-.14-.23.09-.79.68-1.67a24.25,24.25,0,0,1,2.1-2.64,25.42,25.42,0,0,1,2-2,13.17,13.17,0,0,1,2-1.48,3.89,3.89,0,0,1,1.87-.63,1.36,1.36,0,0,1,1.31.66,5.69,5.69,0,0,1,.31,4.46,11.45,11.45,0,0,1,1.37-1,3.34,3.34,0,0,1,1.68-.55,1.47,1.47,0,0,1,1.34.8A3.55,3.55,0,0,1,26.55,42.65Zm-6.71-5.53a2.8,2.8,0,0,0-1.28.48A14.41,14.41,0,0,0,16.76,39a15.3,15.3,0,0,0-1.54,1.47,10.75,10.75,0,0,0,1,2.31c.49.8,1.15,1.78,2,3a3.58,3.58,0,0,0,.51-.52q.33-.39.6-.75A10.56,10.56,0,0,0,21,40.69a4.14,4.14,0,0,0-.34-3.16A.89.89,0,0,0,19.84,37.12Z"/><path d="M33.12,41.08a4.07,4.07,0,0,1,.29,1.21,5.51,5.51,0,0,1-.13,2.08A2.74,2.74,0,0,1,32,46.07a2.26,2.26,0,0,1-1.68.33,2.38,2.38,0,0,1-1.52-1.23,5.69,5.69,0,0,1-.54-4.59A2.8,2.8,0,0,1,29.42,39a1.75,1.75,0,0,1,.92-.28.79.79,0,0,1,.7.41,1.35,1.35,0,0,1,0,1.18,5.76,5.76,0,0,1-.86,1.54,9.21,9.21,0,0,1-1.37,1.49,5,5,0,0,0,.56,1.24,1.9,1.9,0,0,0,1.06.93,1.44,1.44,0,0,0,1.25-.21,2.34,2.34,0,0,0,1.16-1.68,7.83,7.83,0,0,0,0-2.22s0-.13,0-.25,0-.2,0-.22S33.05,41,33.12,41.08Zm-3-1.64a1.21,1.21,0,0,0-.56.19,1.85,1.85,0,0,0-.74.9,3.43,3.43,0,0,0-.27,1.22,3.09,3.09,0,0,0,.1,1,5.41,5.41,0,0,0,1-1.09,6.51,6.51,0,0,0,.73-1.26c.16-.4.2-.66.12-.8A.43.43,0,0,0,30.15,39.44Z"/><path d="M39,38.1a11,11,0,0,1-.8,3.63,2,2,0,0,1-.59.94.33.33,0,0,1-.29,0,.41.41,0,0,1-.24-.19.5.5,0,0,1,0-.35,1.07,1.07,0,0,1,.21-.47,6.24,6.24,0,0,0,.93-2.1,6.87,6.87,0,0,0,.19-2.22,3.81,3.81,0,0,0-.46-1.67.68.68,0,0,0-.34-.3.55.55,0,0,0-.42.1,2.08,2.08,0,0,0-.83,1.11A5.92,5.92,0,0,0,36,38.4a10.63,10.63,0,0,0,.08,1.73,8.68,8.68,0,0,0,.47,1.92c.11.34.06.58-.16.71-.06,0-.16,0-.29,0a.6.6,0,0,1-.28-.22Q34.91,41,33,38.21c-1.25-1.87-2-2.94-2.17-3.19a.71.71,0,0,0-.1-.14l-.11-.12-.12-.14a.72.72,0,0,1-.11-.15c-.13-.2-.1-.35.08-.46a.48.48,0,0,1,.52.05,1.59,1.59,0,0,1,.52.54l.42.68q1.88,3,3,4.61a5.22,5.22,0,0,0,.65.83,6.61,6.61,0,0,1-.14-1.21,12,12,0,0,1,0-1.36A6.47,6.47,0,0,1,36,36a2.73,2.73,0,0,1,1-1.28,1,1,0,0,1,.8-.14,1.2,1.2,0,0,1,.71.59A5,5,0,0,1,39,38.1Z"/><path d="M38.11,31.46a.81.81,0,0,1-.55.09c-.22,0-.36-.08-.4-.16a.41.41,0,0,1,0-.35.42.42,0,0,1,.19-.29.86.86,0,0,1,.45,0l.39.13a1.32,1.32,0,0,1,.26.12C38.49,31.13,38.39,31.28,38.11,31.46Zm5.6,7.64a.5.5,0,0,1-.22.21c-.12.07-.33-.07-.61-.41s-.79-1-1.49-2c-.46-.67-.91-1.32-1.34-2s-.77-1.15-1-1.5a.45.45,0,0,1-.09-.24c0-.06,0-.12.13-.17a.41.41,0,0,1,.52,0,4.29,4.29,0,0,1,.65.89l.92,1.51c.53.86,1,1.53,1.35,2l.62.75a7.27,7.27,0,0,1,.53.65A.26.26,0,0,1,43.71,39.1Z"/><path d="M44.47,26.24l.59,1c.29.51.59,1,.9,1.52.6,1,1.23,1.94,1.9,2.92s1.11,1.63,1.33,1.93l.11.15a1,1,0,0,0,.13.15c.18.22.28.36.32.41a.35.35,0,0,1,0,.35.79.79,0,0,1-.21.3.22.22,0,0,1-.26,0,.94.94,0,0,1-.23-.27c-.29-.47-.58-1-.86-1.49l-.43-.72-.6-.93c-.24-.39-.46-.7-.64-1A19,19,0,0,1,47.15,35a2.66,2.66,0,0,1-.93,2.47,1,1,0,0,1-1,0,2.19,2.19,0,0,1-1-1,5.3,5.3,0,0,1-.68-2.62,11.16,11.16,0,0,1,.3-3c.23-.93.48-1.49.77-1.66s.46-.16.57,0a1.06,1.06,0,0,1,.13.49,2.91,2.91,0,0,1,0,.59,1.26,1.26,0,0,1,0,.3h-.07a.08.08,0,0,1-.06,0,.7.7,0,0,1-.07-.26.52.52,0,0,0-.07-.24.18.18,0,0,0-.06-.08s-.05,0-.1,0-.34.55-.51,1.33a9.71,9.71,0,0,0-.16,2.51,4.61,4.61,0,0,0,.61,2.21,1.44,1.44,0,0,0,.48.5.51.51,0,0,0,.58,0c.63-.39.88-1.27.76-2.65a24.24,24.24,0,0,0-.83-4.43l-.68-1.06c-.61-.93-.94-1.42-1-1.48a7.84,7.84,0,0,1-.62-1.14.85.85,0,0,1,0-.21c0-.05,0-.09.1-.14a.62.62,0,0,1,.31-.07.31.31,0,0,1,.27.14Z"/><path d="M56.35,30.09a.31.31,0,0,1,.19.11.75.75,0,0,1,.08.43c0,.18,0,.3-.13.35a.43.43,0,0,1-.5-.06,2,2,0,0,1-.5-.56c-.12-.2-.49-.82-1.09-1.86L54.11,28a.63.63,0,0,0-.41-.33c0,.89,0,1.67,0,2.35a7.75,7.75,0,0,1-.43,2.13A2.88,2.88,0,0,1,52,33.78a.91.91,0,0,1-.78.14,1.17,1.17,0,0,1-.64-.53,3.94,3.94,0,0,1-.4-1.68,13.49,13.49,0,0,1,.06-2.52,11.53,11.53,0,0,1,.5-2.39,4.7,4.7,0,0,1,.44-1,1.47,1.47,0,0,1,.41-.44,1,1,0,0,1,.5-.13,1.24,1.24,0,0,1,.59.13,1,1,0,0,1,.48.43,1.74,1.74,0,0,1,.25.88l.17-.2c.1,0,.23,0,.38.25s.28.4.55.81l.67,1,.53.8.41.61A.39.39,0,0,0,56.35,30.09Zm-3.57,1.56a7,7,0,0,0,.39-1.92c0-.68.06-1.49,0-2.43a2.8,2.8,0,0,0-.36-.93A.8.8,0,0,0,52.4,26a.6.6,0,0,0-.55.06,1.74,1.74,0,0,0-.55.94,10.61,10.61,0,0,0-.41,2,13.47,13.47,0,0,0-.07,2.26,3.51,3.51,0,0,0,.35,1.51.39.39,0,0,0,.6.16A2.48,2.48,0,0,0,52.78,31.65Z"/><path d="M61.81,26.61a3.8,3.8,0,0,1-.68,1.57,4.71,4.71,0,0,1-1.36,1.27,2.1,2.1,0,0,1-.8.35.35.35,0,0,1-.36-.16c0-.08,0-.27,0-.58s.15-.49.22-.53.17-.08.19,0a.19.19,0,0,1,0,.15.17.17,0,0,0,0,.12s.1,0,.23,0a1.84,1.84,0,0,0,.42-.19,3.7,3.7,0,0,0,.95-.87,3,3,0,0,0,.57-1.06,1.11,1.11,0,0,0-.07-.89.84.84,0,0,0-.56-.41,1.52,1.52,0,0,0-.73,0l-1.26.4c-.64.22-1.14.38-1.51.47a2.48,2.48,0,0,1-1,.09.8.8,0,0,1-.63-.39,1.75,1.75,0,0,1-.1-1.5,5.77,5.77,0,0,1,.89-1.65,4.34,4.34,0,0,1,1-1c.29-.17.49-.18.6,0a.79.79,0,0,1,.1.4.39.39,0,0,1-.19.38.4.4,0,0,1-.2,0,.43.43,0,0,0-.21.05,3.93,3.93,0,0,0-.71.67A3.73,3.73,0,0,0,56,24.4a1.13,1.13,0,0,0,0,1.08.58.58,0,0,0,.63.24,11.9,11.9,0,0,0,1.53-.45l.26-.08a1.68,1.68,0,0,1,.24-.08,6.7,6.7,0,0,1,1.83-.41,1.09,1.09,0,0,1,1.06.56A1.94,1.94,0,0,1,61.81,26.61Z"/><path d="M19.32,27.3l3.75,5.89c1.23,1.94,2.77,2.51,4.3,1.53s1.74-2.58.48-4.57l-3.74-5.89,2.67-1.7,3.69,5.81c2.22,3.49,1.25,6.34-2,8.39-3,1.92-5.87,1.65-8.19-2L16.65,29Z"/><path d="M31.76,19.39l2.59,4.06,4.85-3.09L36.62,16.3l2.67-1.7L46.1,25.3,43.42,27l-2.84-4.47-4.86,3.08,2.85,4.48-2.67,1.7-6.81-10.7Z"/><path d="M44.27,11.43,48,17.32c1.23,1.94,2.77,2.51,4.3,1.53s1.74-2.58.48-4.57L49.06,8.39l2.67-1.7,3.69,5.81c2.22,3.49,1.25,6.34-2,8.39-3,1.92-5.87,1.65-8.19-2L41.6,13.13Z"/><path class="cls-2" d="M50.28,2.47l-1,.54L63.37,26.6l6.21-3.27-4.64-10.1-.21.14a.92.92,0,0,1-1.06.05.94.94,0,0,1-.4-1,13.81,13.81,0,0,0,.22-2.33L60.93,4.52a12.65,12.65,0,0,0-7.32-2.63A10.15,10.15,0,0,0,50.28,2.47Z"/></g></g></svg>