<svg xmlns="http://www.w3.org/2000/svg" viewBox="0 0 100 129.9"><defs><style>.cls-1{fill:#f89939;}.cls-2{fill:#eff3fa;}.cls-3{fill:#ffcd49;}.cls-4{fill:#fff;}.cls-5{fill:none;}</style></defs><g id="Camada_2" data-name="Camada 2"><g id="Camada_1-2" data-name="Camada 1"><path class="cls-1" d="M59.41,12.48a1.1,1.1,0,0,0,0-2.19A1.1,1.1,0,0,0,59.41,12.48Z"/><path class="cls-2" d="M79.91,100.18l-1.54,0-.87-.05-.12-9.88,1.06.15a7.49,7.49,0,0,0,.84,0c2.7,0,9.1-1,10.15-10.72.21-9.14-.13-23.69-1.9-26.44l-.07-.11,0-.13s-1-3.31-3.4-3.31c-1.53,0-3.47,1.34-5.6,3.86l-.21.25-2.91.63L74.26,40l.67-.24a25.52,25.52,0,0,1,7.7-1.23c5.18,0,14,2,15,15.34.07.87,1.89,21.54,1.28,28.62a19.27,19.27,0,0,1-5,12.5c-3.33,3.43-8.06,5.17-14,5.17Z"/><path d="M82.63,39.49C88.48,39.49,95.82,42,96.74,54c0,0,1.91,21.47,1.29,28.51,0,0,.14,16.77-18.12,16.77-.49,0-1,0-1.5,0l-.1-7.9a8,8,0,0,0,1,0c2.65,0,9.94-1,11.08-11.6,0,0,.52-23-2.06-27,0,0-1.2-4-4.28-4-1.58,0-3.65,1-6.31,4.2l-1.57.34-.91-12.62a24.81,24.81,0,0,1,7.4-1.18m0-1.89v0a26.6,26.6,0,0,0-8,1.28l-1.35.48.11,1.45.91,12.62.15,2.15,2.07-.44,1.58-.34.61-.13.41-.49c2.59-3.08,4.18-3.54,4.9-3.54,1.64,0,2.51,2.63,2.52,2.65l.07.26.15.22c.31.48,1.35,2.92,1.69,14,.17,5.73.07,11.1.06,11.82-1,8.56-6.19,9.84-9.23,9.84-.45,0-.72,0-.73,0l-2.12-.29,0,2.19.1,7.9,0,1.78,1.74.08c.54,0,1.07,0,1.58,0,6.24,0,11.18-1.84,14.69-5.46,5-5.16,5.28-12.14,5.29-13.11.6-7.17-1.2-27.72-1.29-28.76-1.09-14.09-10.47-16.2-16-16.2Z"/><path class="cls-2" d="M44.13,115.37c-7,0-24.1-.87-30.68-8.86a.89.89,0,0,1-.21-.61l.13-61.67a.93.93,0,0,1,.8-.93l61.11-8.56h.13a.93.93,0,0,1,.92.9l3.09,68.48a1,1,0,0,1-.18.62c-2.25,3-9.9,10.09-32.48,10.59,0,0-1,.05-2.63.05Z"/><path d="M75.41,35.68l3.09,68.48c-2,2.75-9.42,9.72-31.76,10.21-.05,0-1,0-2.61,0-6.55,0-23.59-.77-30-8.51l.13-61.67,61.12-8.56m0-1.89a1.06,1.06,0,0,0-.25,0L14,42.36a1.88,1.88,0,0,0-1.6,1.87l-.13,61.67a1.91,1.91,0,0,0,.43,1.22c3,3.68,8.41,6.31,16,7.8a83.39,83.39,0,0,0,15.4,1.39c1.51,0,2.49,0,2.67,0,23-.51,30.85-7.83,33.17-11a1.92,1.92,0,0,0,.38-1.23L77.26,35.59a1.88,1.88,0,0,0-.67-1.36,1.78,1.78,0,0,0-1.18-.44Z"/><path class="cls-2" d="M14.16,123.07c-.74-.39-1.45-.81-2.12-1.25a1.54,1.54,0,0,1-.19-.17c-.27-.32-2.58-3.4.66-14.23a.94.94,0,0,1,.86-.67h.29a.91.91,0,0,1,.66.28,17.5,17.5,0,0,0,4.38,3.24c8,4.33,20.2,4.8,25.07,4.8,1.74,0,2.85-.06,3-.06,20.67-.46,28.7-6.27,31.65-9.69a.94.94,0,0,1,.7-.32h.12a.9.9,0,0,1,.7.52c.49,1,4.61,9.86.73,14.51l-.06.07a12.52,12.52,0,0,1-1.68,1.3"/><path d="M79.09,105.94c.41.84,4.36,9.28.86,13.48,0,0-8,7.8-31.67,8.56,0,0-.88,0-2.39,0-6.32,0-23.68-.61-33.35-7,0,0-2.33-2.69.86-13.32h.26a18.29,18.29,0,0,0,4.6,3.41c8,4.36,20,4.91,25.51,4.91,1.71,0,2.82-.05,3-.06,21.13-.47,29.34-6.57,32.3-10m0-1.89a1.84,1.84,0,0,0-1.39.64c-1.3,1.51-3.85,3.71-8.62,5.61-5.77,2.29-13.28,3.56-22.33,3.76h0c-.12,0-1.22.06-2.93.06-4.8,0-16.82-.46-24.64-4.69A16.55,16.55,0,0,1,15,106.37a1.82,1.82,0,0,0-1.33-.57h-.31a1.85,1.85,0,0,0-1.72,1.33c-3.24,10.81-1.18,14.32-.47,15.13a1.75,1.75,0,0,0,.38.34c10,6.58,27.35,7.29,34.35,7.29,1.53,0,2.42,0,2.46,0,24.09-.77,32.53-8.74,32.88-9.08l.13-.14c4.17-5,.23-13.83-.61-15.55a1.84,1.84,0,0,0-1.41-1l-.25,0Z"/><path class="cls-3" d="M73.35,98.2a9.39,9.39,0,0,1-5.67,8.4,66.61,66.61,0,0,1-39,1.94c-1.55-.38-3.12-.76-4.64-1.27A9.38,9.38,0,0,1,18.1,99l-.44-30.88c-.05-3.46-.13-9.13-.18-12.6L17,24.68a6.23,6.23,0,0,1,6-6.39l15.41-.24,12.21-.18,15.41-.24c3.36-.05,4.62,2.75,4.67,6.21l1.66,30.88c0,3.47.44,9.14.49,12.61l.44,30.87Z"/><path class="cls-1" d="M68.52,85.74c.21,3.45.2,6.52-2.3,7.15-2.66.68-2.94-2.66-3-6.14-.19-9.18-.12-18.39-.13-27.58,0-3.06,0-8.08,0-11.14l0-27.32c0-3.06.26-5.61.58-5.65l1.49-.21,1.19-.16,1.49-.21c.33,0,.45,2.43.45,5.49l.16,27.32c0,3.06.05,8.08.05,11.14,0,5.59,0,11.18,0,16.76,0,3.49-.15,7,.07,10.49v.06Z"/><path class="cls-4" d="M67.87,42.05s9.6,8.8,13.3-7.55c0,0,5.91-2.51,2-8,0,0,2-6.54-3.69-5.78,0,0,.73-8.55-7.39-7,0,0-2.71-5-7.89-1,0,0,1.08-4.95-1.23-7.64,0,0-9.11-9.46-19,.6,0,0-5.18-4-9.36,1.51,0,0-4.19-3-8.13,2,0,0-4.19-7-8.87,0,0,0-11.08-1.51-9.61,9.81,0,0-8.62,4.78-4.18,11.06,0,0-5.38,4-1.48,8.3,0,0-3.29,4.84,3,8.81,0,0,1,5.28,4.92,3.77,0,0-1.23,8,3.94,9.31,0,0,1,17.1,11.33,15.59,0,0,7.88.25,9.36-10.81,0,0,9.12-5.54,4.68-13.08,0,0,8.62,2.86,11.57-5.44,0,0,6,3.9,8.44-.63,0,0,7.58,4.56,8.32-3.74Z"/><path class="cls-1" d="M37,97.78a1.1,1.1,0,0,0,0-2.19A1.1,1.1,0,0,0,37,97.78Z"/><path class="cls-1" d="M43.19,82a1.1,1.1,0,0,0,0-2.19A1.1,1.1,0,0,0,43.19,82Z"/><path class="cls-1" d="M51.21,61.85a1.09,1.09,0,0,0,0-2.18A1.09,1.09,0,0,0,51.21,61.85Z"/><path class="cls-1" d="M28.38,83.91a1.1,1.1,0,0,0,0-2.19A1.1,1.1,0,0,0,28.38,83.91Z"/><path class="cls-1" d="M57.39,97.46a1.1,1.1,0,0,0,0-2.19A1.1,1.1,0,0,0,57.39,97.46Z"/><path class="cls-1" d="M53,72.48a1.49,1.49,0,0,0-.09-1.27,1.24,1.24,0,0,0-2.16,0,1.49,1.49,0,0,0-.09,1.27,1.21,1.21,0,0,0,2.34,0Z"/><path class="cls-1" d="M38.71,72.58l.33.29a1.54,1.54,0,0,0,1.06.45,1.51,1.51,0,0,0,1.07-.45,1.55,1.55,0,0,0,.44-1.08,1.62,1.62,0,0,0-.44-1.09l-.29-.33a1.53,1.53,0,0,0-2.17,0,1.6,1.6,0,0,0,0,2.21Z"/><path class="cls-1" d="M44.73,93.68a1.1,1.1,0,0,0,0-2.19A1.1,1.1,0,0,0,44.73,93.68Z"/><path class="cls-1" d="M52.82,86.79a1.44,1.44,0,0,0-.58-.84,1.14,1.14,0,0,0-.81-.1,1.38,1.38,0,0,0-.58.37,1,1,0,0,0,0,1.38,1.42,1.42,0,0,0,1.31.38,1.39,1.39,0,0,0,.65-.38l-.67.28h.31a1,1,0,0,0,.92-.71A1,1,0,0,0,52.7,86c.21,0,.14.07,0,0l-.31-.13c.24.25.49.5.73.76a1.35,1.35,0,0,0-.6-.8l.25.19,0,0a1.43,1.43,0,0,0-.59-.35,1.44,1.44,0,0,0-1,.14,1.64,1.64,0,0,0-.36.29,1.63,1.63,0,0,0,0,2.27,1.53,1.53,0,0,0,1.85.24l.08,0-.79.22a1.82,1.82,0,0,0,1.64-1.14l-1,.8a2,2,0,0,0,1.13-.87,2.54,2.54,0,0,0,.21-.53l-.18.44h0l-.64.66h0l-2.72-1.59a.28.28,0,0,1,0,.09,1.83,1.83,0,0,0,1.82,1.85,1.82,1.82,0,0,0,1.28-.54A1.77,1.77,0,0,0,54,86.6a3.54,3.54,0,0,0-.07-.58,1.88,1.88,0,0,0-1.26-1.29,2,2,0,0,0-1,0,1.83,1.83,0,0,0-.8.48,2,2,0,0,0,0,2.75l-.44-1.67a2.38,2.38,0,0,1-.05.26,1.65,1.65,0,0,0,0,1v-.85l0,0c.05-.12.11-.25.16-.38l0,0,2.79.37a1.74,1.74,0,0,0-.41-.74,2.08,2.08,0,0,0-.38-.3c.2.52.41,1,.61,1.55l0-.07-.57.75a1.41,1.41,0,0,0,.6-.8l-.74.75.32-.13c.08,0,.16,0,0,0a1,1,0,0,0-.25-1.91,2.16,2.16,0,0,0-.57,0,1,1,0,0,0-.42.26c-.1.09.23-.17.1-.09s.25-.09.09,0a.58.58,0,0,1,.54.12V87.6l.05,0a.66.66,0,0,1-.5.21l-.48-.14-.29-.3c0-.16-.09-.32-.13-.49,0,.1,0,0,0-.16l0,.12a1,1,0,1,0,2,0Z"/><path class="cls-1" d="M25.81,91.18a1.61,1.61,0,0,0-.8,1,2.51,2.51,0,0,0,0,1.09,1.5,1.5,0,0,0,.4.7,1.54,1.54,0,0,0,1.1.47,1.64,1.64,0,0,0,.78-.22,1.49,1.49,0,0,0,.71-1,.65.65,0,0,1,.05-.2c-.06.13-.11.25-.16.38s0,0,0,0l-.25.33,0,0-.33.25h0l-.38.16h0l-.42.06h0a1.64,1.64,0,0,0,1.56-2.08,1.63,1.63,0,0,0-.74-1,1.61,1.61,0,0,0-.82-.23,1.55,1.55,0,0,0-.81.23Z"/><path class="cls-1" d="M58.93,51.15a.16.16,0,0,0,0-.32A.16.16,0,0,0,58.93,51.15Z"/><path class="cls-1" d="M58.31,53.66a1.1,1.1,0,0,0,0-2.19A1.1,1.1,0,0,0,58.31,53.66Z"/><path class="cls-5" d="M63.37,26.6,49.25,3l1-.54a14.7,14.7,0,0,0-5.65,3.78.92.92,0,0,1-1.22.08,6.61,6.61,0,0,0-3.6-1.22,5.57,5.57,0,0,0-4.46,2.55.91.91,0,0,1-1.27.2,4.69,4.69,0,0,0-2.48-.73,5.64,5.64,0,0,0-4.39,2.56.92.92,0,0,1-.78.35.94.94,0,0,1-.74-.45S24.06,6.91,22,6.91c-1.2,0-2.42.92-3.62,2.72a.92.92,0,0,1-.88.41A9.75,9.75,0,0,0,16.36,10c-1.54,0-4.39.29-6.09,2.28C9,13.73,8.56,15.92,8.93,18.78a1,1,0,0,1-.48,1s-4.13,2.34-4.86,5.61a5,5,0,0,0,1,4.07,1,1,0,0,1-.21,1.32s-2.3,1.75-2.5,3.93a3.75,3.75,0,0,0,1.16,3,1,1,0,0,1,.08,1.18,4.94,4.94,0,0,0-.61,3.41,6.67,6.67,0,0,0,3.29,4.06.94.94,0,0,1,.42.62s.65,3.28,2.68,3.28a2.81,2.81,0,0,0,1-.21,1,1,0,0,1,.33-.06.88.88,0,0,1,.58.21.94.94,0,0,1,.33.88c0,.07-1,7.2,3.24,8.24a.93.93,0,0,1,.71.86c0,.15,1,14.8,9.15,14.8a9,9,0,0,0,1.13-.08h.16c.74,0,7.11-.28,8.41-10a.94.94,0,0,1,.45-.69s4.29-2.66,5.25-6.55a6.87,6.87,0,0,0-.89-5.23.94.94,0,0,1,.07-1.07.91.91,0,0,1,1-.31,11.06,11.06,0,0,0,3.05.43,7.25,7.25,0,0,0,7.36-5.29,1,1,0,0,1,.57-.57.88.88,0,0,1,.8.1A9.4,9.4,0,0,0,55.88,47a3,3,0,0,0,2.86-1.71.93.93,0,0,1,.56-.45A.89.89,0,0,1,60,45a8.62,8.62,0,0,0,3.7,1.11h0c.71,0,2.86,0,3.22-4.13a1,1,0,0,1,.59-.79.9.9,0,0,1,1,.18,8.7,8.7,0,0,0,5,2.12c3.92,0,5.87-5,6.81-9.18a1,1,0,0,1,.55-.66,5.06,5.06,0,0,0,2.65-2.79A4.64,4.64,0,0,0,82.39,27a1,1,0,0,1-.14-.83c.22-.73.61-2.85-.16-3.91-.45-.61-1.29-.83-2.53-.66a.93.93,0,0,1-.76-.26,1,1,0,0,1-.28-.76s.24-3.13-1.37-4.91a4.16,4.16,0,0,0-3.29-1.29,9,9,0,0,0-1.64.17.93.93,0,0,1-1-.48A4.06,4.06,0,0,0,68,12a5.34,5.34,0,0,0-3.06,1.22l4.64,10.1Z"/><path class="cls-5" d="M62.26,5.63a11.68,11.68,0,0,0-1.33-1.11l2.56,5.57A6.85,6.85,0,0,0,62.26,5.63Z"/><path d="M84.14,26.27c.24-1,.63-3.48-.56-5.13a3.8,3.8,0,0,0-3.2-1.48,8.58,8.58,0,0,0-1.86-5.25c-1.39-1.55-3.41-2.16-6-1.81A5.67,5.67,0,0,0,68,10.11a6.09,6.09,0,0,0-2.67.67c.1-1.85-.09-4.56-1.7-6.42l0,0a15.74,15.74,0,0,0-4.08-2.87l1.41,3.07a11.68,11.68,0,0,1,1.33,1.11,6.85,6.85,0,0,1,1.23,4.46l1.45,3.14A5.34,5.34,0,0,1,68,12a4.06,4.06,0,0,1,3.24,2.07.93.93,0,0,0,1,.48,9,9,0,0,1,1.64-.17,4.16,4.16,0,0,1,3.29,1.29c1.61,1.78,1.37,4.88,1.37,4.91a1,1,0,0,0,.28.76.93.93,0,0,0,.76.26c1.24-.17,2.08.05,2.53.66.77,1.06.38,3.18.16,3.91a1,1,0,0,0,.14.83,4.64,4.64,0,0,1,1.07,3.83,5.06,5.06,0,0,1-2.65,2.79,1,1,0,0,0-.55.66c-.94,4.19-2.89,9.18-6.81,9.18a8.7,8.7,0,0,1-5-2.12.9.9,0,0,0-1-.18,1,1,0,0,0-.59.79c-.36,4.12-2.51,4.13-3.22,4.13h0A8.62,8.62,0,0,1,60,45a.89.89,0,0,0-.71-.1.93.93,0,0,0-.56.45A3,3,0,0,1,55.88,47a9.4,9.4,0,0,1-4.27-1.41.88.88,0,0,0-.8-.1,1,1,0,0,0-.57.57,7.25,7.25,0,0,1-7.36,5.29A11.06,11.06,0,0,1,39.83,51a.91.91,0,0,0-1,.31.94.94,0,0,0-.07,1.07,6.87,6.87,0,0,1,.89,5.23c-1,3.89-5.21,6.53-5.25,6.55a.94.94,0,0,0-.45.69c-1.3,9.72-7.67,10-8.41,10h-.16a9,9,0,0,1-1.13.08c-8.19,0-9.14-14.65-9.15-14.8a.93.93,0,0,0-.71-.86c-4.27-1-3.25-8.17-3.24-8.24a.94.94,0,0,0-.33-.88.88.88,0,0,0-.58-.21A1,1,0,0,0,9.9,50a2.81,2.81,0,0,1-1,.21c-2,0-2.67-3.25-2.68-3.28a.94.94,0,0,0-.42-.62A6.67,6.67,0,0,1,2.5,42.22a4.94,4.94,0,0,1,.61-3.41A1,1,0,0,0,3,37.63a3.75,3.75,0,0,1-1.16-3c.2-2.18,2.48-3.91,2.5-3.93a1,1,0,0,0,.21-1.32,5,5,0,0,1-1-4.07c.73-3.27,4.82-5.59,4.86-5.61a1,1,0,0,0,.48-1c-.37-2.86.08-5.05,1.34-6.52,1.7-2,4.55-2.28,6.09-2.28A9.75,9.75,0,0,1,17.5,10a.92.92,0,0,0,.88-.41c1.2-1.8,2.42-2.72,3.62-2.72,2.06,0,3.68,2.65,3.69,2.68a.94.94,0,0,0,.74.45.92.92,0,0,0,.78-.35A5.64,5.64,0,0,1,31.6,7.13a4.69,4.69,0,0,1,2.48.73.91.91,0,0,0,1.27-.2,5.57,5.57,0,0,1,4.46-2.55,6.61,6.61,0,0,1,3.6,1.22.92.92,0,0,0,1.22-.08,14.7,14.7,0,0,1,5.65-3.78L54.83.07A12.12,12.12,0,0,0,53.61,0c-3.44,0-6.72,1.47-9.76,4.38a8.16,8.16,0,0,0-4-1.16,7.17,7.17,0,0,0-5.42,2.66,6.71,6.71,0,0,0-2.79-.64A7,7,0,0,0,26.55,7.6C25.67,6.54,24.06,5,22,5c-1.73,0-3.35,1-4.83,3.09l-.81,0c-1.86,0-5.3.38-7.49,2.92C7.34,12.79,6.72,15.28,7,18.41c-1.3.84-4.49,3.19-5.23,6.52a6.59,6.59,0,0,0,.81,4.86A8,8,0,0,0,0,34.48a5.46,5.46,0,0,0,1.21,3.91,6.75,6.75,0,0,0-.55,4.19,8.2,8.2,0,0,0,3.81,5.09c.31,1.17,1.42,4.4,4.4,4.4h.3c-.12,2.42.15,7.37,4.11,8.82.29,3.13,2,15.91,10.94,15.91h0a10,10,0,0,0,1.32-.09c1,0,8.51-.39,10.15-11.2C36.9,64.69,40.46,62,41.43,58a8.27,8.27,0,0,0-.25-4.87,14.28,14.28,0,0,0,1.7.11,9.06,9.06,0,0,0,8.69-5.52,10.11,10.11,0,0,0,4.31,1.17,4.81,4.81,0,0,0,4-1.91,9.67,9.67,0,0,0,3.85,1h0c1.5,0,4-.59,4.83-4.26a9.26,9.26,0,0,0,4.91,1.64c2.79,0,6.5-1.79,8.52-10.21a6.6,6.6,0,0,0,3.27-3.79A6.16,6.16,0,0,0,84.14,26.27Z"/><rect class="cls-1" x="64.72" y="26.06" width="8.51" height="7.3" transform="matrix(0.88, -0.47, 0.47, 0.88, -5.89, 35.62)"/><path d="M26.55,42.65A19.39,19.39,0,0,1,26,45.77a16.69,16.69,0,0,1-1,2.84,14.08,14.08,0,0,1-.9,1.78,3,3,0,0,1-.85,1,.6.6,0,0,1-.39.1.42.42,0,0,1-.32-.22.86.86,0,0,1-.1-.65,1.9,1.9,0,0,1,.39-.7,3.17,3.17,0,0,1,.42-.47,3.3,3.3,0,0,0,.61-.71,10.55,10.55,0,0,0,.87-1.88,13.48,13.48,0,0,0,.6-2,12.68,12.68,0,0,0,.28-2.25,3,3,0,0,0-.43-1.61.69.69,0,0,0-.72-.34,2.44,2.44,0,0,0-1,.38,7.66,7.66,0,0,0-2.2,2l-.49.74c-.32.47-.59.85-.8,1.14s-.49.61-.72.89l-.48.56.48.68q.17.27.57.87c.27.39.51.77.74,1.13a11.85,11.85,0,0,1,1.09,2.18,1.09,1.09,0,0,1,.06.47c0,.12-.11.22-.28.33a.55.55,0,0,1-.38.08.37.37,0,0,1-.32-.18,5.83,5.83,0,0,1-.23-.73,3.89,3.89,0,0,0-.46-1.12q-.88-1.44-2.4-3.6l-.58-.81c-.57-.77-1-1.39-1.29-1.86a15.76,15.76,0,0,1-.77-1.4c-.29-.58-.48-1-.56-1.15a14.92,14.92,0,0,0-1.38,1.77,6.1,6.1,0,0,0-.53,1,1.87,1.87,0,0,1-.44.68.4.4,0,0,1-.34,0,.54.54,0,0,1-.31-.25c-.14-.23.09-.79.68-1.67a24.25,24.25,0,0,1,2.1-2.64,25.42,25.42,0,0,1,2-2,13.17,13.17,0,0,1,2-1.48,3.89,3.89,0,0,1,1.87-.63,1.36,1.36,0,0,1,1.31.66,5.69,5.69,0,0,1,.31,4.46,11.45,11.45,0,0,1,1.37-1,3.34,3.34,0,0,1,1.68-.55,1.47,1.47,0,0,1,1.34.8A3.55,3.55,0,0,1,26.55,42.65Zm-6.71-5.53a2.8,2.8,0,0,0-1.28.48A14.41,14.41,0,0,0,16.76,39a15.3,15.3,0,0,0-1.54,1.47,10.75,10.75,0,0,0,1,2.31c.49.8,1.15,1.78,2,3a3.58,3.58,0,0,0,.51-.52q.33-.39.6-.75A10.56,10.56,0,0,0,21,40.69a4.14,4.14,0,0,0-.34-3.16A.89.89,0,0,0,19.84,37.12Z"/><path d="M33.12,41.08a4.07,4.07,0,0,1,.29,1.21,5.51,5.51,0,0,1-.13,2.08A2.74,2.74,0,0,1,32,46.07a2.26,2.26,0,0,1-1.68.33,2.38,2.38,0,0,1-1.52-1.23,5.69,5.69,0,0,1-.54-4.59A2.8,2.8,0,0,1,29.42,39a1.75,1.75,0,0,1,.92-.28.79.79,0,0,1,.7.41,1.35,1.35,0,0,1,0,1.18,5.76,5.76,0,0,1-.86,1.54,9.21,9.21,0,0,1-1.37,1.49,5,5,0,0,0,.56,1.24,1.9,1.9,0,0,0,1.06.93,1.44,1.44,0,0,0,1.25-.21,2.34,2.34,0,0,0,1.16-1.68,7.83,7.83,0,0,0,0-2.22s0-.13,0-.25,0-.2,0-.22S33.05,41,33.12,41.08Zm-3-1.64a1.21,1.21,0,0,0-.56.19,1.85,1.85,0,0,0-.74.9,3.43,3.43,0,0,0-.27,1.22,3.09,3.09,0,0,0,.1,1,5.41,5.41,0,0,0,1-1.09,6.51,6.51,0,0,0,.73-1.26c.16-.4.2-.66.12-.8A.43.43,0,0,0,30.15,39.44Z"/><path d="M39,38.1a11,11,0,0,1-.8,3.63,2,2,0,0,1-.59.94.33.33,0,0,1-.29,0,.41.41,0,0,1-.24-.19.5.5,0,0,1,0-.35,1.07,1.07,0,0,1,.21-.47,6.24,6.24,0,0,0,.93-2.1,6.87,6.87,0,0,0,.19-2.22,3.81,3.81,0,0,0-.46-1.67.68.68,0,0,0-.34-.3.55.55,0,0,0-.42.1,2.08,2.08,0,0,0-.83,1.11A5.92,5.92,0,0,0,36,38.4a10.63,10.63,0,0,0,.08,1.73,8.68,8.68,0,0,0,.47,1.92c.11.34.06.58-.16.71-.06,0-.16,0-.29,0a.6.6,0,0,1-.28-.22Q34.91,41,33,38.21c-1.25-1.87-2-2.94-2.17-3.19a.71.71,0,0,0-.1-.14l-.11-.12-.12-.14a.72.72,0,0,1-.11-.15c-.13-.2-.1-.35.08-.46a.48.48,0,0,1,.52.05,1.59,1.59,0,0,1,.52.54l.42.68q1.88,3,3,4.61a5.22,5.22,0,0,0,.65.83,6.61,6.61,0,0,1-.14-1.21,12,12,0,0,1,0-1.36A6.47,6.47,0,0,1,36,36a2.73,2.73,0,0,1,1-1.28,1,1,0,0,1,.8-.14,1.2,1.2,0,0,1,.71.59A5,5,0,0,1,39,38.1Z"/><path d="M38.11,31.46a.81.81,0,0,1-.55.09c-.22,0-.36-.08-.4-.16a.41.41,0,0,1,0-.35.42.42,0,0,1,.19-.29.86.86,0,0,1,.45,0l.39.13a1.32,1.32,0,0,1,.26.12C38.49,31.13,38.39,31.28,38.11,31.46Zm5.6,7.64a.5.5,0,0,1-.22.21c-.12.07-.33-.07-.61-.41s-.79-1-1.49-2c-.46-.67-.91-1.32-1.34-2s-.77-1.15-1-1.5a.45.45,0,0,1-.09-.24c0-.06,0-.12.13-.17a.41.41,0,0,1,.52,0,4.29,4.29,0,0,1,.65.89l.92,1.51c.53.86,1,1.53,1.35,2l.62.75a7.27,7.27,0,0,1,.53.65A.26.26,0,0,1,43.71,39.1Z"/><path d="M44.47,26.24l.59,1c.29.51.59,1,.9,1.52.6,1,1.23,1.94,1.9,2.92s1.11,1.63,1.33,1.93l.11.15a1,1,0,0,0,.13.15c.18.22.28.36.32.41a.35.35,0,0,1,0,.35.79.79,0,0,1-.21.3.22.22,0,0,1-.26,0,.94.94,0,0,1-.23-.27c-.29-.47-.58-1-.86-1.49l-.43-.72-.6-.93c-.24-.39-.46-.7-.64-1A19,19,0,0,1,47.15,35a2.66,2.66,0,0,1-.93,2.47,1,1,0,0,1-1,0,2.19,2.19,0,0,1-1-1,5.3,5.3,0,0,1-.68-2.62,11.16,11.16,0,0,1,.3-3c.23-.93.48-1.49.77-1.66s.46-.16.57,0a1.06,1.06,0,0,1,.13.49,2.91,2.91,0,0,1,0,.59,1.26,1.26,0,0,1,0,.3h-.07a.08.08,0,0,1-.06,0,.7.7,0,0,1-.07-.26.52.52,0,0,0-.07-.24.18.18,0,0,0-.06-.08s-.05,0-.1,0-.34.55-.51,1.33a9.71,9.71,0,0,0-.16,2.51,4.61,4.61,0,0,0,.61,2.21,1.44,1.44,0,0,0,.48.5.51.51,0,0,0,.58,0c.63-.39.88-1.27.76-2.65a24.24,24.24,0,0,0-.83-4.43l-.68-1.06c-.61-.93-.94-1.42-1-1.48a7.84,7.84,0,0,1-.62-1.14.85.85,0,0,1,0-.21c0-.05,0-.09.1-.14a.62.62,0,0,1,.31-.07.31.31,0,0,1,.27.14Z"/><path d="M56.35,30.09a.31.31,0,0,1,.19.11.75.75,0,0,1,.08.43c0,.18,0,.3-.13.35a.43.43,0,0,1-.5-.06,2,2,0,0,1-.5-.56c-.12-.2-.49-.82-1.09-1.86L54.11,28a.63.63,0,0,0-.41-.33c0,.89,0,1.67,0,2.35a7.75,7.75,0,0,1-.43,2.13A2.88,2.88,0,0,1,52,33.78a.91.91,0,0,1-.78.14,1.17,1.17,0,0,1-.64-.53,3.94,3.94,0,0,1-.4-1.68,13.49,13.49,0,0,1,.06-2.52,11.53,11.53,0,0,1,.5-2.39,4.7,4.7,0,0,1,.44-1,1.47,1.47,0,0,1,.41-.44,1,1,0,0,1,.5-.13,1.24,1.24,0,0,1,.59.13,1,1,0,0,1,.48.43,1.74,1.74,0,0,1,.25.88l.17-.2c.1,0,.23,0,.38.25s.28.4.55.81l.67,1,.53.8.41.61A.39.39,0,0,0,56.35,30.09Zm-3.57,1.56a7,7,0,0,0,.39-1.92c0-.68.06-1.49,0-2.43a2.8,2.8,0,0,0-.36-.93A.8.8,0,0,0,52.4,26a.6.6,0,0,0-.55.06,1.74,1.74,0,0,0-.55.94,10.61,10.61,0,0,0-.41,2,13.47,13.47,0,0,0-.07,2.26,3.51,3.51,0,0,0,.35,1.51.39.39,0,0,0,.6.16A2.48,2.48,0,0,0,52.78,31.65Z"/><path d="M61.81,26.61a3.8,3.8,0,0,1-.68,1.57,4.71,4.71,0,0,1-1.36,1.27,2.1,2.1,0,0,1-.8.35.35.35,0,0,1-.36-.16c0-.08,0-.27,0-.58s.15-.49.22-.53.17-.08.19,0a.19.19,0,0,1,0,.15.17.17,0,0,0,0,.12s.1,0,.23,0a1.84,1.84,0,0,0,.42-.19,3.7,3.7,0,0,0,.95-.87,3,3,0,0,0,.57-1.06,1.11,1.11,0,0,0-.07-.89.84.84,0,0,0-.56-.41,1.52,1.52,0,0,0-.73,0l-1.26.4c-.64.22-1.14.38-1.51.47a2.48,2.48,0,0,1-1,.09.8.8,0,0,1-.63-.39,1.75,1.75,0,0,1-.1-1.5,5.77,5.77,0,0,1,.89-1.65,4.34,4.34,0,0,1,1-1c.29-.17.49-.18.6,0a.79.79,0,0,1,.1.4.39.39,0,0,1-.19.38.4.4,0,0,1-.2,0,.43.43,0,0,0-.21.05,3.93,3.93,0,0,0-.71.67A3.73,3.73,0,0,0,56,24.4a1.13,1.13,0,0,0,0,1.08.58.58,0,0,0,.63.24,11.9,11.9,0,0,0,1.53-.45l.26-.08a1.68,1.68,0,0,1,.24-.08,6.7,6.7,0,0,1,1.83-.41,1.09,1.09,0,0,1,1.06.56A1.94,1.94,0,0,1,61.81,26.61Z"/><path d="M19.32,27.3l3.75,5.89c1.23,1.94,2.77,2.51,4.3,1.53s1.74-2.58.48-4.57l-3.74-5.89,2.67-1.7,3.69,5.81c2.22,3.49,1.25,6.34-2,8.39-3,1.92-5.87,1.65-8.19-2L16.65,29Z"/><path d="M31.76,19.39l2.59,4.06,4.85-3.09L36.62,16.3l2.67-1.7L46.1,25.3,43.42,27l-2.84-4.47-4.86,3.08,2.85,4.48-2.67,1.7-6.81-10.7Z"/><path d="M44.27,11.43,48,17.32c1.23,1.94,2.77,2.51,4.3,1.53s1.74-2.58.48-4.57L49.06,8.39l2.67-1.7,3.69,5.81c2.22,3.49,1.25,6.34-2,8.39-3,1.92-5.87,1.65-8.19-2L41.6,13.13Z"/><path class="cls-3" d="M50.28,2.47l-1,.54L63.37,26.6l6.21-3.27-4.64-10.1-.21.14a.92.92,0,0,1-1.06.05.94.94,0,0,1-.4-1,13.81,13.81,0,0,0,.22-2.33L60.93,4.52a12.65,12.65,0,0,0-7.32-2.63A10.15,10.15,0,0,0,50.28,2.47Z"/><path d="M63.67,13.42a.92.92,0,0,0,1.06-.05l.21-.14-1.45-3.14a13.81,13.81,0,0,1-.22,2.33A.94.94,0,0,0,63.67,13.42Z"/><path d="M53.61,1.89a12.65,12.65,0,0,1,7.32,2.63L59.52,1.45A13.73,13.73,0,0,0,54.83.07l-4.55,2.4A10.15,10.15,0,0,1,53.61,1.89Z"/><path d="M79.18,119.13a16.81,16.81,0,0,1-2.05,1.05,5,5,0,0,1-3.11.5,2.86,2.86,0,0,1-2.1-1.79,3.33,3.33,0,0,1,0-2.94,5.52,5.52,0,0,1,2.8-2.23,14.61,14.61,0,0,1,1.84-.67Zm-3.62-4.39A5.07,5.07,0,0,0,75,115c-1.5.63-2.12,1.78-1.52,3.18s1.72,1.56,3.08,1a4.06,4.06,0,0,0,.74-.39Z"/><path d="M69.63,115.78l1.43,4.68-1.53.46-1.42-4.68Zm.25,6.48a.85.85,0,0,1,1.63-.49.79.79,0,0,1-.59,1A.78.78,0,0,1,69.88,122.26Z"/><path d="M67.24,117.93a3.24,3.24,0,0,0-1.5-.05c-.49.11-.64.31-.59.54s.24.32.87.34c1.13,0,1.7.49,1.84,1.09.21.91-.43,1.78-1.69,2.08a3.67,3.67,0,0,1-1.53,0l0-1.11a3,3,0,0,0,1.22,0c.37-.09.57-.27.51-.52s-.3-.31-1-.34c-1,0-1.57-.4-1.75-1.14s.32-1.72,1.81-2.08a4,4,0,0,1,1.78,0Z"/><path d="M61.8,124.13l-.24-1.4-1.13.19-.2-1.17,1.12-.19-.27-1.6c-.11-.59-.28-.88-.79-.79a1.78,1.78,0,0,0-.47.14l-.22-1.19a3.31,3.31,0,0,1,1-.32,1.65,1.65,0,0,1,1.27.25,2,2,0,0,1,.67,1.37l.33,1.87.66-.12.21,1.17-.67.12.19,1.05Z"/><path d="M59.11,121.44c.1.79.16,1.23.24,1.64l-1.35.17-.17-1h0a1.54,1.54,0,0,1-1.29,1.26,1.3,1.3,0,0,1-.34,0L56,122.11a1.81,1.81,0,0,0,.46,0,1,1,0,0,0,1-.93c0-.09,0-.19,0-.29l-.31-2.45,1.58-.2Z"/><path d="M54.73,118.69l.43,4.88-1.59.14-.43-4.88Zm-1.09,6.4a.85.85,0,1,1,.91.7A.77.77,0,0,1,53.64,125.09Z"/><path d="M52,119c0,.29,0,.88,0,1.47l.24,5.69-1.59.07-.12-2.88h0a1.9,1.9,0,0,1-1.6.8,2.24,2.24,0,0,1-2.33-2.4A2.45,2.45,0,0,1,48.89,119a1.79,1.79,0,0,1,1.66.77h0l0-.72Zm-1.54,2.25a1,1,0,0,0-1.11-1,1.18,1.18,0,0,0-1.13,1.4,1.2,1.2,0,0,0,1.24,1.3,1.07,1.07,0,0,0,1-.89,1.29,1.29,0,0,0,0-.28Z"/><path d="M40.55,120.65c0-.67,0-1.2,0-1.59l1.39,0,0,.75h0a1.84,1.84,0,0,1,1.67-.84c1,0,1.84.64,1.81,2.21l-.06,2.84-1.59,0,0-2.56c0-.75-.24-1.18-.83-1.2a.92.92,0,0,0-.88.59.83.83,0,0,0-.06.29L42.07,124l-1.59,0Z"/><path d="M37.27,125.12a.85.85,0,1,1,.79.83A.79.79,0,0,1,37.27,125.12Zm2-6.16L39,123.84l-1.59-.1.32-4.88Z"/><path d="M30.61,125.37l.6-5.67c.07-.58.11-1.17.12-1.46l1.42.15,0,.78h0a1.89,1.89,0,0,1,1.79-.71,2.34,2.34,0,0,1,2,2.75,2.43,2.43,0,0,1-2.67,2.35,1.74,1.74,0,0,1-1.37-.72h0l-.29,2.71Zm2-4.22a2.62,2.62,0,0,0,0,.28,1,1,0,0,0,.93.9c.78.09,1.25-.47,1.33-1.23a1.18,1.18,0,0,0-1-1.44,1,1,0,0,0-1.11.72,2,2,0,0,0-.06.35Z"/><path d="M24.58,119.62a2.61,2.61,0,0,1,3.24-2.09,2.54,2.54,0,0,1,2.26,3,2.59,2.59,0,0,1-3.27,2.07A2.52,2.52,0,0,1,24.58,119.62Zm3.86.63c.15-.82-.16-1.5-.86-1.63s-1.19.32-1.35,1.24c-.14.72.07,1.48.83,1.62S28.31,121,28.44,120.25Z"/><path d="M23.36,120c-.2.77-.31,1.21-.38,1.62l-1.32-.35.19-1h0a1.55,1.55,0,0,1-1.66.7,1.33,1.33,0,0,1-.32-.12l.37-1.43a2.14,2.14,0,0,0,.42.17,1,1,0,0,0,1.3-.49l.09-.27.62-2.4,1.54.4Z"/><path d="M17.7,114.94l-.07.49,0,0a1.89,1.89,0,0,1,1.62-.06,1.55,1.55,0,0,1,1.07,2c-.43,1.2-1.72,1.4-3.55.73v.05c-.08.2-.11.62.7.91a3.23,3.23,0,0,0,1.51.13l-.07,1a4.19,4.19,0,0,1-2.06-.26,2,2,0,0,1-1.42-2.78l.57-1.57a6.21,6.21,0,0,0,.33-1.17Zm-.6,2.22c.86.32,1.52.34,1.7-.18.13-.34,0-.61-.41-.74a.93.93,0,0,0-1,.27,1,1,0,0,0-.12.25Z"/></g></g></svg>